<mxfile host="app.diagrams.net" agent="Mozilla/5.0 (Windows NT 10.0; Win64; x64) AppleWebKit/537.36 (KHTML, like Gecko) Chrome/135.0.0.0 Safari/537.36" version="26.2.13" pages="3">
  <diagram name="主卧" id="0Y3aUXeyJhFC3lakdoXw">
    <mxGraphModel dx="29660" dy="15870" grid="1" gridSize="3937" guides="1" tooltips="1" connect="1" arrows="1" fold="1" page="1" pageScale="1" pageWidth="1100" pageHeight="850" background="none" math="0" shadow="0">
      <root>
        <mxCell id="2GP0ffE6psbElvoL1Qzv-0" />
        <mxCell id="2GP0ffE6psbElvoL1Qzv-1" parent="2GP0ffE6psbElvoL1Qzv-0" />
        <mxCell id="InSnoAxOMRRJQUh_xfCQ-1" value="" style="rounded=0;whiteSpace=wrap;html=1;" vertex="1" parent="2GP0ffE6psbElvoL1Qzv-1">
          <mxGeometry width="13031.47" height="19251.93" as="geometry" />
        </mxCell>
        <mxCell id="InSnoAxOMRRJQUh_xfCQ-2" value="" style="rounded=0;whiteSpace=wrap;html=1;" vertex="1" parent="2GP0ffE6psbElvoL1Qzv-1">
          <mxGeometry x="5275.58" y="14448.789999999999" width="7755.889999999999" height="472.44" as="geometry" />
        </mxCell>
        <mxCell id="w2GmvJRFpQE-XRViWJfJ-0" value="&lt;font style=&quot;font-size: 500px;&quot;&gt;飘窗&lt;/font&gt;&lt;div&gt;&lt;br&gt;&lt;/div&gt;" style="rounded=0;whiteSpace=wrap;html=1;movable=1;resizable=1;rotatable=1;deletable=1;editable=1;locked=0;connectable=1;" vertex="1" parent="2GP0ffE6psbElvoL1Qzv-1">
          <mxGeometry x="5275.58" y="-787.4" width="7757.858499999999" height="787.4" as="geometry" />
        </mxCell>
        <mxCell id="w2GmvJRFpQE-XRViWJfJ-1" value="" style="rounded=0;whiteSpace=wrap;html=1;" vertex="1" parent="2GP0ffE6psbElvoL1Qzv-1">
          <mxGeometry x="5275.58" y="17283.43" width="466.5345" height="1968.5" as="geometry" />
        </mxCell>
        <mxCell id="w2GmvJRFpQE-XRViWJfJ-2" value="" style="rounded=0;whiteSpace=wrap;html=1;" vertex="1" parent="2GP0ffE6psbElvoL1Qzv-1">
          <mxGeometry x="5275.58" y="14921.23" width="472.44" height="393.7" as="geometry" />
        </mxCell>
        <mxCell id="851fG4ADyfo4VfPlv_kh-0" value="" style="rounded=0;whiteSpace=wrap;html=1;movable=1;resizable=1;rotatable=1;deletable=1;editable=1;locked=0;connectable=1;direction=south;" vertex="1" parent="2GP0ffE6psbElvoL1Qzv-1">
          <mxGeometry x="-787.0002499999991" y="14921.23275" width="787.4" height="3931.0944999999997" as="geometry" />
        </mxCell>
        <mxCell id="851fG4ADyfo4VfPlv_kh-1" value="" style="verticalLabelPosition=bottom;html=1;verticalAlign=top;align=center;shape=mxgraph.floorplan.doorLeft;direction=north;movable=1;resizable=1;rotatable=1;deletable=1;editable=1;locked=0;connectable=1;" vertex="1" parent="2GP0ffE6psbElvoL1Qzv-1">
          <mxGeometry x="0.0024999999995998223" y="15314.93" width="3149.6" height="3149.6" as="geometry" />
        </mxCell>
        <mxCell id="BfZTFUc-cRfiLmINvoOh-0" value="" style="rounded=0;whiteSpace=wrap;html=1;direction=south;" vertex="1" parent="2GP0ffE6psbElvoL1Qzv-1">
          <mxGeometry x="4370.07425" y="2559.0499999999997" width="8661.4" height="7088.568499999999" as="geometry" />
        </mxCell>
        <mxCell id="BfZTFUc-cRfiLmINvoOh-1" value="" style="rounded=0;whiteSpace=wrap;html=1;" vertex="1" parent="2GP0ffE6psbElvoL1Qzv-1">
          <mxGeometry x="5275.58" y="12086.59" width="7755.889999999999" height="2362.2" as="geometry" />
        </mxCell>
        <mxCell id="BfZTFUc-cRfiLmINvoOh-3" value="" style="rounded=0;whiteSpace=wrap;html=1;" vertex="1" parent="2GP0ffE6psbElvoL1Qzv-1">
          <mxGeometry width="2362.2" height="14448.789999999999" as="geometry" />
        </mxCell>
      </root>
    </mxGraphModel>
  </diagram>
  <diagram name="次卧" id="4bd5d27a-524c-7e24-5d5f-89a86ee4fca1">
    <mxGraphModel dx="32500" dy="13933" grid="1" gridSize="3937" guides="1" tooltips="1" connect="1" arrows="1" fold="1" page="1" pageScale="1" pageWidth="1100" pageHeight="850" background="none" math="0" shadow="0">
      <root>
        <mxCell id="0" />
        <mxCell id="1" parent="0" />
        <mxCell id="QfmQ7vgXu_iXUv1zbBvU-1" value="" style="whiteSpace=wrap;html=1;movable=0;resizable=0;rotatable=0;deletable=0;editable=0;locked=1;connectable=0;" parent="1" vertex="1">
          <mxGeometry width="11023.6" height="12598.4" as="geometry" />
        </mxCell>
        <mxCell id="QfmQ7vgXu_iXUv1zbBvU-2" value="&lt;font style=&quot;font-size: 500px;&quot;&gt;150*200&lt;/font&gt;&lt;div&gt;&lt;font style=&quot;font-size: 500px;&quot;&gt;折叠沙发床&lt;/font&gt;&lt;/div&gt;" style="rounded=0;whiteSpace=wrap;html=1;movable=0;resizable=0;rotatable=0;deletable=0;editable=0;locked=1;connectable=0;" parent="1" vertex="1">
          <mxGeometry y="393.7" width="7874" height="5905.5" as="geometry" />
        </mxCell>
        <mxCell id="QfmQ7vgXu_iXUv1zbBvU-5" value="&lt;font style=&quot;font-size: 500px;&quot;&gt;飘窗&lt;/font&gt;&lt;div&gt;&lt;br&gt;&lt;/div&gt;" style="rounded=0;whiteSpace=wrap;html=1;movable=0;resizable=0;rotatable=0;deletable=0;editable=0;locked=1;connectable=0;" parent="1" vertex="1">
          <mxGeometry x="5905.5" y="-787.4" width="5116.1314999999995" height="787.4" as="geometry" />
        </mxCell>
        <mxCell id="QfmQ7vgXu_iXUv1zbBvU-6" value="&lt;font style=&quot;font-size: 500px;&quot;&gt;150*60&lt;/font&gt;&lt;div&gt;&lt;font style=&quot;font-size: 500px;&quot;&gt;衣柜&lt;/font&gt;&lt;/div&gt;" style="rounded=0;whiteSpace=wrap;html=1;movable=0;resizable=0;rotatable=0;deletable=0;editable=0;locked=1;connectable=0;" parent="1" vertex="1">
          <mxGeometry y="6692.9" width="2362.2" height="5905.5" as="geometry" />
        </mxCell>
        <mxCell id="2Vlns5ZEm93gp3pkl4o4-1" value="桌子&lt;div&gt;&lt;br&gt;&lt;/div&gt;" style="verticalLabelPosition=bottom;html=1;verticalAlign=top;align=center;shape=mxgraph.floorplan.table;movable=0;resizable=0;rotatable=0;deletable=0;editable=0;locked=1;connectable=0;" parent="1" vertex="1">
          <mxGeometry x="2362.2" y="10245.429999999998" width="4330.7" height="2362.2" as="geometry" />
        </mxCell>
        <mxCell id="2Vlns5ZEm93gp3pkl4o4-2" value="" style="verticalLabelPosition=bottom;html=1;verticalAlign=top;align=center;shape=mxgraph.floorplan.table;direction=south;movable=0;resizable=0;rotatable=0;deletable=0;editable=0;locked=1;connectable=0;" parent="1" vertex="1">
          <mxGeometry x="8661.4" width="2362.2" height="4724.4" as="geometry" />
        </mxCell>
        <mxCell id="QfmQ7vgXu_iXUv1zbBvU-14" value="" style="verticalLabelPosition=bottom;html=1;verticalAlign=top;align=center;shape=mxgraph.floorplan.doorLeft;direction=west;movable=0;resizable=0;rotatable=0;deletable=0;editable=0;locked=1;connectable=0;" parent="1" vertex="1">
          <mxGeometry x="6929.12" y="8654.55" width="3937" height="3937" as="geometry" />
        </mxCell>
        <mxCell id="QfmQ7vgXu_iXUv1zbBvU-16" style="edgeStyle=none;rounded=0;orthogonalLoop=1;jettySize=auto;html=1;exitX=0;exitY=0.75;exitDx=0;exitDy=0;movable=0;resizable=0;rotatable=0;deletable=0;editable=0;locked=1;connectable=0;" parent="1" source="QfmQ7vgXu_iXUv1zbBvU-2" target="QfmQ7vgXu_iXUv1zbBvU-2" edge="1">
          <mxGeometry relative="1" as="geometry" />
        </mxCell>
        <mxCell id="2Vlns5ZEm93gp3pkl4o4-3" value="&lt;div&gt;次卧&lt;span style=&quot;background-color: transparent; color: light-dark(rgb(0, 0, 0), rgb(255, 255, 255));&quot;&gt;沙发床&lt;/span&gt;&lt;span style=&quot;background-color: transparent; color: light-dark(rgb(0, 0, 0), rgb(255, 255, 255));&quot;&gt;打开效果&lt;/span&gt;&lt;/div&gt;" style="text;strokeColor=none;align=center;fillColor=none;html=1;verticalAlign=middle;whiteSpace=wrap;rounded=0;fontSize=600;movable=0;resizable=0;rotatable=0;deletable=0;editable=0;locked=1;connectable=0;" parent="1" vertex="1">
          <mxGeometry x="2750" y="14450" width="7088.568499999999" height="787.4" as="geometry" />
        </mxCell>
        <mxCell id="2Vlns5ZEm93gp3pkl4o4-12" value="60*110桌子" style="text;strokeColor=none;align=center;fillColor=none;html=1;verticalAlign=middle;whiteSpace=wrap;rounded=0;fontSize=500;movable=0;resizable=0;rotatable=0;deletable=0;editable=0;locked=1;connectable=0;" parent="1" vertex="1">
          <mxGeometry x="4311.02" y="11475" width="395.6685" height="118.11" as="geometry" />
        </mxCell>
        <mxCell id="2Vlns5ZEm93gp3pkl4o4-14" value="120*60&lt;div&gt;桌子&lt;/div&gt;" style="text;strokeColor=none;align=center;fillColor=none;html=1;verticalAlign=middle;whiteSpace=wrap;rounded=0;fontSize=500;movable=0;resizable=0;rotatable=0;deletable=0;editable=0;locked=1;connectable=0;" parent="1" vertex="1">
          <mxGeometry x="8887.78" y="1082.67" width="1889.76" height="2342.51" as="geometry" />
        </mxCell>
        <mxCell id="2Vlns5ZEm93gp3pkl4o4-33" value="" style="rounded=0;whiteSpace=wrap;html=1;direction=south;movable=0;resizable=0;rotatable=0;deletable=0;editable=0;locked=1;connectable=0;" parent="1" vertex="1">
          <mxGeometry x="10861.9725" y="4723.6075" width="137.795" height="3937" as="geometry" />
        </mxCell>
        <mxCell id="2Vlns5ZEm93gp3pkl4o4-36" value="" style="whiteSpace=wrap;html=1;movable=0;resizable=0;rotatable=0;deletable=0;editable=0;locked=1;connectable=0;" parent="1" vertex="1">
          <mxGeometry x="9.842500000000001" y="9.842500000000001" width="11023.6" height="12598.4" as="geometry" />
        </mxCell>
        <mxCell id="2Vlns5ZEm93gp3pkl4o4-37" value="&lt;font style=&quot;font-size: 500px;&quot;&gt;150*200&lt;/font&gt;&lt;div&gt;&lt;font style=&quot;font-size: 500px;&quot;&gt;折叠沙发床&lt;/font&gt;&lt;/div&gt;" style="rounded=0;whiteSpace=wrap;html=1;movable=0;resizable=0;rotatable=0;deletable=0;editable=0;locked=1;connectable=0;" parent="1" vertex="1">
          <mxGeometry x="9.842500000000001" y="403.5425" width="7874" height="5905.5" as="geometry" />
        </mxCell>
        <mxCell id="2Vlns5ZEm93gp3pkl4o4-38" value="" style="rounded=0;whiteSpace=wrap;html=1;align=center;movable=0;resizable=0;rotatable=0;deletable=0;editable=0;locked=1;connectable=0;" parent="1" vertex="1">
          <mxGeometry x="9.842500000000001" y="9.842500000000001" width="2913.3799999999997" height="393.7" as="geometry" />
        </mxCell>
        <mxCell id="2Vlns5ZEm93gp3pkl4o4-39" value="" style="rounded=0;whiteSpace=wrap;html=1;movable=0;resizable=0;rotatable=0;deletable=0;editable=0;locked=1;connectable=0;" parent="1" vertex="1">
          <mxGeometry x="9.842500000000001" y="6309.0425" width="2913.3799999999997" height="393.7" as="geometry" />
        </mxCell>
        <mxCell id="2Vlns5ZEm93gp3pkl4o4-40" value="&lt;font style=&quot;font-size: 500px;&quot;&gt;飘窗&lt;/font&gt;&lt;div&gt;&lt;br&gt;&lt;/div&gt;" style="rounded=0;whiteSpace=wrap;html=1;movable=0;resizable=0;rotatable=0;deletable=0;editable=0;locked=1;connectable=0;" parent="1" vertex="1">
          <mxGeometry x="5915.3425" y="-777.5575" width="5116.1314999999995" height="787.4" as="geometry" />
        </mxCell>
        <mxCell id="2Vlns5ZEm93gp3pkl4o4-41" value="&lt;font style=&quot;font-size: 500px;&quot;&gt;150*60&lt;/font&gt;&lt;div&gt;&lt;font style=&quot;font-size: 500px;&quot;&gt;衣柜&lt;/font&gt;&lt;/div&gt;" style="rounded=0;whiteSpace=wrap;html=1;movable=0;resizable=0;rotatable=0;deletable=0;editable=0;locked=1;connectable=0;" parent="1" vertex="1">
          <mxGeometry x="9.842500000000001" y="6702.742499999999" width="2362.2" height="5905.5" as="geometry" />
        </mxCell>
        <mxCell id="2Vlns5ZEm93gp3pkl4o4-42" value="桌子&lt;div&gt;&lt;br&gt;&lt;/div&gt;" style="verticalLabelPosition=bottom;html=1;verticalAlign=top;align=center;shape=mxgraph.floorplan.table;movable=0;resizable=0;rotatable=0;deletable=0;editable=0;locked=1;connectable=0;" parent="1" vertex="1">
          <mxGeometry x="2372.0425" y="10255.2725" width="4330.7" height="2362.2" as="geometry" />
        </mxCell>
        <mxCell id="2Vlns5ZEm93gp3pkl4o4-43" value="" style="verticalLabelPosition=bottom;html=1;verticalAlign=top;align=center;shape=mxgraph.floorplan.table;direction=south;movable=0;resizable=0;rotatable=0;deletable=0;editable=0;locked=1;connectable=0;" parent="1" vertex="1">
          <mxGeometry x="8671.2425" y="9.842500000000001" width="2362.2" height="4724.4" as="geometry" />
        </mxCell>
        <mxCell id="2Vlns5ZEm93gp3pkl4o4-45" value="" style="verticalLabelPosition=bottom;html=1;verticalAlign=top;align=center;shape=mxgraph.floorplan.doorLeft;direction=west;movable=0;resizable=0;rotatable=0;deletable=0;editable=0;locked=1;connectable=0;" parent="1" vertex="1">
          <mxGeometry x="6938.9625" y="8664.3925" width="3937" height="3937" as="geometry" />
        </mxCell>
        <mxCell id="2Vlns5ZEm93gp3pkl4o4-46" style="edgeStyle=none;rounded=0;orthogonalLoop=1;jettySize=auto;html=1;exitX=0;exitY=0.75;exitDx=0;exitDy=0;movable=0;resizable=0;rotatable=0;deletable=0;editable=0;locked=1;connectable=0;" parent="1" source="2Vlns5ZEm93gp3pkl4o4-37" target="2Vlns5ZEm93gp3pkl4o4-37" edge="1">
          <mxGeometry relative="1" as="geometry" />
        </mxCell>
        <mxCell id="2Vlns5ZEm93gp3pkl4o4-47" value="60*110桌子" style="text;strokeColor=none;align=center;fillColor=none;html=1;verticalAlign=middle;whiteSpace=wrap;rounded=0;fontSize=500;movable=0;resizable=0;rotatable=0;deletable=0;editable=0;locked=1;connectable=0;" parent="1" vertex="1">
          <mxGeometry x="4320.8625" y="11484.8425" width="395.6685" height="118.11" as="geometry" />
        </mxCell>
        <mxCell id="2Vlns5ZEm93gp3pkl4o4-48" value="120*60&lt;div&gt;桌子&lt;/div&gt;" style="text;strokeColor=none;align=center;fillColor=none;html=1;verticalAlign=middle;whiteSpace=wrap;rounded=0;fontSize=500;movable=0;resizable=0;rotatable=0;deletable=0;editable=0;locked=1;connectable=0;" parent="1" vertex="1">
          <mxGeometry x="8897.622500000001" y="1092.5125" width="1889.76" height="2342.51" as="geometry" />
        </mxCell>
        <mxCell id="2Vlns5ZEm93gp3pkl4o4-49" value="" style="rounded=0;whiteSpace=wrap;html=1;direction=south;movable=0;resizable=0;rotatable=0;deletable=0;editable=0;locked=1;connectable=0;" parent="1" vertex="1">
          <mxGeometry x="10871.815" y="4733.45" width="137.795" height="3937" as="geometry" />
        </mxCell>
        <mxCell id="2Vlns5ZEm93gp3pkl4o4-52" value="" style="whiteSpace=wrap;html=1;movable=0;resizable=0;rotatable=0;deletable=0;editable=0;locked=1;connectable=0;" parent="1" vertex="1">
          <mxGeometry x="9.842500000000001" y="9.842500000000001" width="11023.6" height="12598.4" as="geometry" />
        </mxCell>
        <mxCell id="2Vlns5ZEm93gp3pkl4o4-53" value="&lt;font style=&quot;font-size: 500px;&quot;&gt;150*200&lt;/font&gt;&lt;div&gt;&lt;font style=&quot;font-size: 500px;&quot;&gt;折叠沙发床&lt;/font&gt;&lt;/div&gt;" style="rounded=0;whiteSpace=wrap;html=1;movable=0;resizable=0;rotatable=0;deletable=0;editable=0;locked=1;connectable=0;" parent="1" vertex="1">
          <mxGeometry x="9.842500000000001" y="403.5425" width="7874" height="5905.5" as="geometry" />
        </mxCell>
        <mxCell id="2Vlns5ZEm93gp3pkl4o4-54" value="" style="rounded=0;whiteSpace=wrap;html=1;align=center;movable=0;resizable=0;rotatable=0;deletable=0;editable=0;locked=1;connectable=0;" parent="1" vertex="1">
          <mxGeometry x="9.842500000000001" y="9.842500000000001" width="2913.3799999999997" height="393.7" as="geometry" />
        </mxCell>
        <mxCell id="2Vlns5ZEm93gp3pkl4o4-55" value="" style="rounded=0;whiteSpace=wrap;html=1;movable=0;resizable=0;rotatable=0;deletable=0;editable=0;locked=1;connectable=0;" parent="1" vertex="1">
          <mxGeometry x="9.842500000000001" y="6309.0425" width="2913.3799999999997" height="393.7" as="geometry" />
        </mxCell>
        <mxCell id="2Vlns5ZEm93gp3pkl4o4-56" value="&lt;font style=&quot;font-size: 500px;&quot;&gt;飘窗&lt;/font&gt;&lt;div&gt;&lt;br&gt;&lt;/div&gt;" style="rounded=0;whiteSpace=wrap;html=1;movable=0;resizable=0;rotatable=0;deletable=0;editable=0;locked=1;connectable=0;" parent="1" vertex="1">
          <mxGeometry x="5915.3425" y="-777.5575" width="5116.1314999999995" height="787.4" as="geometry" />
        </mxCell>
        <mxCell id="2Vlns5ZEm93gp3pkl4o4-57" value="&lt;font style=&quot;font-size: 500px;&quot;&gt;150*60&lt;/font&gt;&lt;div&gt;&lt;font style=&quot;font-size: 500px;&quot;&gt;衣柜&lt;/font&gt;&lt;/div&gt;" style="rounded=0;whiteSpace=wrap;html=1;movable=0;resizable=0;rotatable=0;deletable=0;editable=0;locked=1;connectable=0;" parent="1" vertex="1">
          <mxGeometry x="9.842500000000001" y="6702.742499999999" width="2362.2" height="5905.5" as="geometry" />
        </mxCell>
        <mxCell id="2Vlns5ZEm93gp3pkl4o4-58" value="桌子&lt;div&gt;&lt;br&gt;&lt;/div&gt;" style="verticalLabelPosition=bottom;html=1;verticalAlign=top;align=center;shape=mxgraph.floorplan.table;movable=0;resizable=0;rotatable=0;deletable=0;editable=0;locked=1;connectable=0;" parent="1" vertex="1">
          <mxGeometry x="2372.0425" y="10255.2725" width="4330.7" height="2362.2" as="geometry" />
        </mxCell>
        <mxCell id="2Vlns5ZEm93gp3pkl4o4-59" value="" style="verticalLabelPosition=bottom;html=1;verticalAlign=top;align=center;shape=mxgraph.floorplan.table;direction=south;movable=0;resizable=0;rotatable=0;deletable=0;editable=0;locked=1;connectable=0;" parent="1" vertex="1">
          <mxGeometry x="8671.2425" y="9.842500000000001" width="2362.2" height="4724.4" as="geometry" />
        </mxCell>
        <mxCell id="2Vlns5ZEm93gp3pkl4o4-60" value="" style="rounded=0;whiteSpace=wrap;html=1;movable=0;resizable=0;rotatable=0;deletable=0;editable=0;locked=1;connectable=0;" parent="1" vertex="1">
          <mxGeometry x="6938.9625" y="12598.4" width="3931.0944999999997" height="787.4" as="geometry" />
        </mxCell>
        <mxCell id="2Vlns5ZEm93gp3pkl4o4-61" value="" style="verticalLabelPosition=bottom;html=1;verticalAlign=top;align=center;shape=mxgraph.floorplan.doorLeft;direction=west;movable=0;resizable=0;rotatable=0;deletable=0;editable=0;locked=1;connectable=0;" parent="1" vertex="1">
          <mxGeometry x="7332.662499999999" y="9448.8" width="3149.6" height="3149.6" as="geometry" />
        </mxCell>
        <mxCell id="2Vlns5ZEm93gp3pkl4o4-62" style="edgeStyle=none;rounded=0;orthogonalLoop=1;jettySize=auto;html=1;exitX=0;exitY=0.75;exitDx=0;exitDy=0;movable=0;resizable=0;rotatable=0;deletable=0;editable=0;locked=1;connectable=0;" parent="1" source="2Vlns5ZEm93gp3pkl4o4-53" target="2Vlns5ZEm93gp3pkl4o4-53" edge="1">
          <mxGeometry relative="1" as="geometry" />
        </mxCell>
        <mxCell id="2Vlns5ZEm93gp3pkl4o4-63" value="60*110桌子" style="text;strokeColor=none;align=center;fillColor=none;html=1;verticalAlign=middle;whiteSpace=wrap;rounded=0;fontSize=500;movable=0;resizable=0;rotatable=0;deletable=0;editable=0;locked=1;connectable=0;" parent="1" vertex="1">
          <mxGeometry x="4320.8625" y="11484.8425" width="395.6685" height="118.11" as="geometry" />
        </mxCell>
        <mxCell id="2Vlns5ZEm93gp3pkl4o4-64" value="120*60&lt;div&gt;桌子&lt;/div&gt;" style="text;strokeColor=none;align=center;fillColor=none;html=1;verticalAlign=middle;whiteSpace=wrap;rounded=0;fontSize=500;movable=0;resizable=0;rotatable=0;deletable=0;editable=0;locked=1;connectable=0;" parent="1" vertex="1">
          <mxGeometry x="8897.622500000001" y="1092.5125" width="1889.76" height="2342.51" as="geometry" />
        </mxCell>
        <mxCell id="2Vlns5ZEm93gp3pkl4o4-65" value="" style="rounded=0;whiteSpace=wrap;html=1;direction=east;movable=0;resizable=0;rotatable=0;deletable=0;editable=0;locked=1;connectable=0;" parent="1" vertex="1">
          <mxGeometry x="2992.12" width="2755.9" height="137.795" as="geometry" />
        </mxCell>
        <mxCell id="2Vlns5ZEm93gp3pkl4o4-85" value="" style="rounded=0;whiteSpace=wrap;html=1;direction=south;movable=0;resizable=0;rotatable=0;deletable=0;editable=0;locked=1;connectable=0;" parent="1" vertex="1">
          <mxGeometry x="9852.34" y="4724.4" width="1181.1" height="4724.4" as="geometry" />
        </mxCell>
        <mxCell id="2Vlns5ZEm93gp3pkl4o4-86" value="120&lt;div&gt;*30&lt;div&gt;书柜&amp;nbsp;&lt;/div&gt;&lt;/div&gt;" style="text;strokeColor=none;align=center;fillColor=none;html=1;verticalAlign=middle;whiteSpace=wrap;rounded=0;fontSize=500;movable=0;resizable=0;rotatable=0;deletable=0;editable=0;locked=1;connectable=0;" parent="1" vertex="1">
          <mxGeometry x="9978.670000000002" y="5452.745000000001" width="1181.1" height="3149.6" as="geometry" />
        </mxCell>
        <mxCell id="2Vlns5ZEm93gp3pkl4o4-87" value="" style="rounded=0;whiteSpace=wrap;html=1;direction=south;movable=0;resizable=0;rotatable=0;deletable=0;editable=0;locked=1;connectable=0;" parent="1" vertex="1">
          <mxGeometry x="10615.91" y="10186.99" width="393.7" height="2362.2" as="geometry" />
        </mxCell>
        <mxCell id="2Vlns5ZEm93gp3pkl4o4-89" value="60*30&lt;div&gt;墙上书架&lt;/div&gt;" style="text;strokeColor=none;align=center;fillColor=none;html=1;verticalAlign=middle;whiteSpace=wrap;rounded=0;fontSize=500;movable=0;resizable=0;rotatable=0;deletable=0;editable=0;locked=1;connectable=0;" parent="1" vertex="1">
          <mxGeometry x="11299.190000000002" y="10236.202500000001" width="1181.1" height="2362.2" as="geometry" />
        </mxCell>
        <mxCell id="2Vlns5ZEm93gp3pkl4o4-126" value="" style="rounded=0;whiteSpace=wrap;html=1;movable=0;resizable=0;rotatable=0;deletable=0;editable=0;locked=1;connectable=0;" parent="1" vertex="1">
          <mxGeometry x="20138.965" y="11810.9925" width="3931.0944999999997" height="787.4" as="geometry" />
        </mxCell>
        <mxCell id="2Vlns5ZEm93gp3pkl4o4-140" value="" style="whiteSpace=wrap;html=1;movable=0;resizable=0;rotatable=0;deletable=0;editable=0;locked=1;connectable=0;" parent="1" vertex="1">
          <mxGeometry x="13750" y="9.839999999999947" width="11023.6" height="12598.4" as="geometry" />
        </mxCell>
        <mxCell id="2Vlns5ZEm93gp3pkl4o4-141" value="&lt;font style=&quot;font-size: 500px;&quot;&gt;150*200&lt;/font&gt;&lt;div&gt;&lt;font style=&quot;font-size: 500px;&quot;&gt;折叠沙发床&lt;/font&gt;&lt;/div&gt;" style="rounded=0;whiteSpace=wrap;html=1;movable=0;resizable=0;rotatable=0;deletable=0;editable=0;locked=1;connectable=0;" parent="1" vertex="1">
          <mxGeometry x="13750" y="403.53999999999974" width="7874" height="5905.5" as="geometry" />
        </mxCell>
        <mxCell id="2Vlns5ZEm93gp3pkl4o4-142" value="&lt;font style=&quot;font-size: 500px;&quot;&gt;飘窗&lt;/font&gt;&lt;div&gt;&lt;br&gt;&lt;/div&gt;" style="rounded=0;whiteSpace=wrap;html=1;movable=0;resizable=0;rotatable=0;deletable=0;editable=0;locked=1;connectable=0;" parent="1" vertex="1">
          <mxGeometry x="19655.5" y="-777.5600000000002" width="5116.1314999999995" height="787.4" as="geometry" />
        </mxCell>
        <mxCell id="2Vlns5ZEm93gp3pkl4o4-143" value="&lt;font style=&quot;font-size: 500px;&quot;&gt;150*60&lt;/font&gt;&lt;div&gt;&lt;font style=&quot;font-size: 500px;&quot;&gt;衣柜&lt;/font&gt;&lt;/div&gt;" style="rounded=0;whiteSpace=wrap;html=1;movable=0;resizable=0;rotatable=0;deletable=0;editable=0;locked=1;connectable=0;" parent="1" vertex="1">
          <mxGeometry x="13750" y="6702.739999999999" width="2362.2" height="5905.5" as="geometry" />
        </mxCell>
        <mxCell id="2Vlns5ZEm93gp3pkl4o4-144" value="桌子&lt;div&gt;&lt;br&gt;&lt;/div&gt;" style="verticalLabelPosition=bottom;html=1;verticalAlign=top;align=center;shape=mxgraph.floorplan.table;movable=0;resizable=0;rotatable=0;deletable=0;editable=0;locked=1;connectable=0;" parent="1" vertex="1">
          <mxGeometry x="16112.2" y="10255.269999999999" width="4330.7" height="2362.2" as="geometry" />
        </mxCell>
        <mxCell id="2Vlns5ZEm93gp3pkl4o4-145" value="" style="verticalLabelPosition=bottom;html=1;verticalAlign=top;align=center;shape=mxgraph.floorplan.table;direction=south;movable=0;resizable=0;rotatable=0;deletable=0;editable=0;locked=1;connectable=0;" parent="1" vertex="1">
          <mxGeometry x="22411.4" y="9.839999999999947" width="2362.2" height="4724.4" as="geometry" />
        </mxCell>
        <mxCell id="2Vlns5ZEm93gp3pkl4o4-147" value="" style="verticalLabelPosition=bottom;html=1;verticalAlign=top;align=center;shape=mxgraph.floorplan.doorLeft;direction=west;movable=0;resizable=0;rotatable=0;deletable=0;editable=0;locked=1;connectable=0;" parent="1" vertex="1">
          <mxGeometry x="20679.12" y="8664.389999999998" width="3937" height="3937" as="geometry" />
        </mxCell>
        <mxCell id="2Vlns5ZEm93gp3pkl4o4-148" style="edgeStyle=none;rounded=0;orthogonalLoop=1;jettySize=auto;html=1;exitX=0;exitY=0.75;exitDx=0;exitDy=0;movable=0;resizable=0;rotatable=0;deletable=0;editable=0;locked=1;connectable=0;" parent="1" source="2Vlns5ZEm93gp3pkl4o4-141" target="2Vlns5ZEm93gp3pkl4o4-141" edge="1">
          <mxGeometry relative="1" as="geometry" />
        </mxCell>
        <mxCell id="2Vlns5ZEm93gp3pkl4o4-149" value="60*110桌子" style="text;strokeColor=none;align=center;fillColor=none;html=1;verticalAlign=middle;whiteSpace=wrap;rounded=0;fontSize=500;movable=0;resizable=0;rotatable=0;deletable=0;editable=0;locked=1;connectable=0;" parent="1" vertex="1">
          <mxGeometry x="18061.02" y="11484.839999999998" width="395.6685" height="118.11" as="geometry" />
        </mxCell>
        <mxCell id="2Vlns5ZEm93gp3pkl4o4-150" value="120*60&lt;div&gt;桌子&lt;/div&gt;" style="text;strokeColor=none;align=center;fillColor=none;html=1;verticalAlign=middle;whiteSpace=wrap;rounded=0;fontSize=500;movable=0;resizable=0;rotatable=0;deletable=0;editable=0;locked=1;connectable=0;" parent="1" vertex="1">
          <mxGeometry x="22637.78" y="1092.5100000000002" width="1889.76" height="2342.51" as="geometry" />
        </mxCell>
        <mxCell id="2Vlns5ZEm93gp3pkl4o4-151" value="" style="rounded=0;whiteSpace=wrap;html=1;direction=south;movable=0;resizable=0;rotatable=0;deletable=0;editable=0;locked=1;connectable=0;" parent="1" vertex="1">
          <mxGeometry x="24611.9725" y="4733.447499999999" width="137.795" height="3937" as="geometry" />
        </mxCell>
        <mxCell id="2Vlns5ZEm93gp3pkl4o4-152" value="" style="whiteSpace=wrap;html=1;movable=0;resizable=0;rotatable=0;deletable=0;editable=0;locked=1;connectable=0;" parent="1" vertex="1">
          <mxGeometry x="13759.8425" y="19.682500000000147" width="11023.6" height="12598.4" as="geometry" />
        </mxCell>
        <mxCell id="2Vlns5ZEm93gp3pkl4o4-153" value="&lt;font style=&quot;font-size: 500px;&quot;&gt;150*200&lt;/font&gt;&lt;div&gt;&lt;font style=&quot;font-size: 500px;&quot;&gt;折叠沙发床&lt;/font&gt;&lt;/div&gt;" style="rounded=0;whiteSpace=wrap;html=1;movable=0;resizable=0;rotatable=0;deletable=0;editable=0;locked=1;connectable=0;" parent="1" vertex="1">
          <mxGeometry x="13759.8425" y="413.3824999999995" width="7874" height="5905.5" as="geometry" />
        </mxCell>
        <mxCell id="2Vlns5ZEm93gp3pkl4o4-154" value="" style="rounded=0;whiteSpace=wrap;html=1;align=center;movable=0;resizable=0;rotatable=0;deletable=0;editable=0;locked=1;connectable=0;" parent="1" vertex="1">
          <mxGeometry x="13759.8425" y="19.682500000000147" width="2913.3799999999997" height="393.7" as="geometry" />
        </mxCell>
        <mxCell id="2Vlns5ZEm93gp3pkl4o4-155" value="" style="rounded=0;whiteSpace=wrap;html=1;movable=0;resizable=0;rotatable=0;deletable=0;editable=0;locked=1;connectable=0;" parent="1" vertex="1">
          <mxGeometry x="13759.8425" y="6318.882499999999" width="2913.3799999999997" height="393.7" as="geometry" />
        </mxCell>
        <mxCell id="2Vlns5ZEm93gp3pkl4o4-156" value="&lt;font style=&quot;font-size: 500px;&quot;&gt;飘窗&lt;/font&gt;&lt;div&gt;&lt;br&gt;&lt;/div&gt;" style="rounded=0;whiteSpace=wrap;html=1;movable=0;resizable=0;rotatable=0;deletable=0;editable=0;locked=1;connectable=0;" parent="1" vertex="1">
          <mxGeometry x="19665.3425" y="-767.7175" width="5116.1314999999995" height="787.4" as="geometry" />
        </mxCell>
        <mxCell id="2Vlns5ZEm93gp3pkl4o4-157" value="&lt;font style=&quot;font-size: 500px;&quot;&gt;150*60&lt;/font&gt;&lt;div&gt;&lt;font style=&quot;font-size: 500px;&quot;&gt;衣柜&lt;/font&gt;&lt;/div&gt;" style="rounded=0;whiteSpace=wrap;html=1;movable=0;resizable=0;rotatable=0;deletable=0;editable=0;locked=1;connectable=0;" parent="1" vertex="1">
          <mxGeometry x="13759.8425" y="6712.5824999999995" width="2362.2" height="5905.5" as="geometry" />
        </mxCell>
        <mxCell id="2Vlns5ZEm93gp3pkl4o4-158" value="桌子&lt;div&gt;&lt;br&gt;&lt;/div&gt;" style="verticalLabelPosition=bottom;html=1;verticalAlign=top;align=center;shape=mxgraph.floorplan.table;movable=0;resizable=0;rotatable=0;deletable=0;editable=0;locked=1;connectable=0;" parent="1" vertex="1">
          <mxGeometry x="16122.0425" y="10265.112499999997" width="4330.7" height="2362.2" as="geometry" />
        </mxCell>
        <mxCell id="2Vlns5ZEm93gp3pkl4o4-159" value="" style="verticalLabelPosition=bottom;html=1;verticalAlign=top;align=center;shape=mxgraph.floorplan.table;direction=south;movable=0;resizable=0;rotatable=0;deletable=0;editable=0;locked=1;connectable=0;" parent="1" vertex="1">
          <mxGeometry x="22421.2425" y="19.682500000000147" width="2362.2" height="4724.4" as="geometry" />
        </mxCell>
        <mxCell id="2Vlns5ZEm93gp3pkl4o4-161" value="" style="verticalLabelPosition=bottom;html=1;verticalAlign=top;align=center;shape=mxgraph.floorplan.doorLeft;direction=west;movable=0;resizable=0;rotatable=0;deletable=0;editable=0;locked=1;connectable=0;" parent="1" vertex="1">
          <mxGeometry x="20688.9625" y="8674.2325" width="3937" height="3937" as="geometry" />
        </mxCell>
        <mxCell id="2Vlns5ZEm93gp3pkl4o4-162" style="edgeStyle=none;rounded=0;orthogonalLoop=1;jettySize=auto;html=1;exitX=0;exitY=0.75;exitDx=0;exitDy=0;movable=0;resizable=0;rotatable=0;deletable=0;editable=0;locked=1;connectable=0;" parent="1" source="2Vlns5ZEm93gp3pkl4o4-153" target="2Vlns5ZEm93gp3pkl4o4-153" edge="1">
          <mxGeometry relative="1" as="geometry" />
        </mxCell>
        <mxCell id="2Vlns5ZEm93gp3pkl4o4-163" value="60*110桌子" style="text;strokeColor=none;align=center;fillColor=none;html=1;verticalAlign=middle;whiteSpace=wrap;rounded=0;fontSize=500;movable=0;resizable=0;rotatable=0;deletable=0;editable=0;locked=1;connectable=0;" parent="1" vertex="1">
          <mxGeometry x="18070.8625" y="11494.6825" width="395.6685" height="118.11" as="geometry" />
        </mxCell>
        <mxCell id="2Vlns5ZEm93gp3pkl4o4-164" value="120*60&lt;div&gt;桌子&lt;/div&gt;" style="text;strokeColor=none;align=center;fillColor=none;html=1;verticalAlign=middle;whiteSpace=wrap;rounded=0;fontSize=500;movable=0;resizable=0;rotatable=0;deletable=0;editable=0;locked=1;connectable=0;" parent="1" vertex="1">
          <mxGeometry x="22647.6225" y="1102.3525" width="1889.76" height="2342.51" as="geometry" />
        </mxCell>
        <mxCell id="2Vlns5ZEm93gp3pkl4o4-165" value="" style="rounded=0;whiteSpace=wrap;html=1;direction=south;movable=0;resizable=0;rotatable=0;deletable=0;editable=0;locked=1;connectable=0;" parent="1" vertex="1">
          <mxGeometry x="24621.815000000002" y="4743.29" width="137.795" height="3937" as="geometry" />
        </mxCell>
        <mxCell id="2Vlns5ZEm93gp3pkl4o4-166" value="" style="whiteSpace=wrap;html=1;movable=0;resizable=0;rotatable=0;deletable=0;editable=0;locked=1;connectable=0;" parent="1" vertex="1">
          <mxGeometry x="13759.8425" y="19.682500000000147" width="11023.6" height="12598.4" as="geometry" />
        </mxCell>
        <mxCell id="2Vlns5ZEm93gp3pkl4o4-167" value="&lt;font style=&quot;font-size: 500px;&quot;&gt;150*80&lt;/font&gt;&lt;div&gt;&lt;font style=&quot;font-size: 500px;&quot;&gt;折叠沙发床&lt;/font&gt;&lt;/div&gt;" style="rounded=0;whiteSpace=wrap;html=1;movable=0;resizable=0;rotatable=0;deletable=0;editable=0;locked=1;connectable=0;" parent="1" vertex="1">
          <mxGeometry x="13759.8425" y="413.3824999999995" width="3149.6" height="5905.5" as="geometry" />
        </mxCell>
        <mxCell id="2Vlns5ZEm93gp3pkl4o4-168" value="" style="rounded=0;whiteSpace=wrap;html=1;align=center;movable=0;resizable=0;rotatable=0;deletable=0;editable=0;locked=1;connectable=0;" parent="1" vertex="1">
          <mxGeometry x="13759.8425" y="19.682500000000147" width="2913.3799999999997" height="393.7" as="geometry" />
        </mxCell>
        <mxCell id="2Vlns5ZEm93gp3pkl4o4-169" value="" style="rounded=0;whiteSpace=wrap;html=1;movable=0;resizable=0;rotatable=0;deletable=0;editable=0;locked=1;connectable=0;" parent="1" vertex="1">
          <mxGeometry x="13759.8425" y="6318.882499999999" width="2913.3799999999997" height="393.7" as="geometry" />
        </mxCell>
        <mxCell id="2Vlns5ZEm93gp3pkl4o4-171" value="&lt;font style=&quot;font-size: 500px;&quot;&gt;150*60&lt;/font&gt;&lt;div&gt;&lt;font style=&quot;font-size: 500px;&quot;&gt;衣柜&lt;/font&gt;&lt;/div&gt;" style="rounded=0;whiteSpace=wrap;html=1;movable=0;resizable=0;rotatable=0;deletable=0;editable=0;locked=1;connectable=0;" parent="1" vertex="1">
          <mxGeometry x="13759.8425" y="6712.5824999999995" width="2362.2" height="5905.5" as="geometry" />
        </mxCell>
        <mxCell id="2Vlns5ZEm93gp3pkl4o4-172" value="桌子&lt;div&gt;&lt;br&gt;&lt;/div&gt;" style="verticalLabelPosition=bottom;html=1;verticalAlign=top;align=center;shape=mxgraph.floorplan.table;movable=0;resizable=0;rotatable=0;deletable=0;editable=0;locked=1;connectable=0;" parent="1" vertex="1">
          <mxGeometry x="16122.0425" y="10265.112499999997" width="4330.7" height="2362.2" as="geometry" />
        </mxCell>
        <mxCell id="2Vlns5ZEm93gp3pkl4o4-173" value="" style="verticalLabelPosition=bottom;html=1;verticalAlign=top;align=center;shape=mxgraph.floorplan.table;direction=south;movable=0;resizable=0;rotatable=0;deletable=0;editable=0;locked=1;connectable=0;" parent="1" vertex="1">
          <mxGeometry x="22421.2425" y="19.682500000000147" width="2362.2" height="4724.4" as="geometry" />
        </mxCell>
        <mxCell id="2Vlns5ZEm93gp3pkl4o4-174" value="" style="rounded=0;whiteSpace=wrap;html=1;movable=0;resizable=0;rotatable=0;deletable=0;editable=0;locked=1;connectable=0;" parent="1" vertex="1">
          <mxGeometry x="20688.9625" y="12608.24" width="3931.0944999999997" height="787.4" as="geometry" />
        </mxCell>
        <mxCell id="2Vlns5ZEm93gp3pkl4o4-175" value="" style="verticalLabelPosition=bottom;html=1;verticalAlign=top;align=center;shape=mxgraph.floorplan.doorLeft;direction=west;movable=0;resizable=0;rotatable=0;deletable=0;editable=0;locked=1;connectable=0;" parent="1" vertex="1">
          <mxGeometry x="21082.6625" y="9448.8" width="3149.6" height="3149.6" as="geometry" />
        </mxCell>
        <mxCell id="2Vlns5ZEm93gp3pkl4o4-176" style="edgeStyle=none;rounded=0;orthogonalLoop=1;jettySize=auto;html=1;exitX=0;exitY=0.75;exitDx=0;exitDy=0;movable=0;resizable=0;rotatable=0;deletable=0;editable=0;locked=1;connectable=0;" parent="1" source="2Vlns5ZEm93gp3pkl4o4-167" target="2Vlns5ZEm93gp3pkl4o4-167" edge="1">
          <mxGeometry relative="1" as="geometry" />
        </mxCell>
        <mxCell id="2Vlns5ZEm93gp3pkl4o4-177" value="60*110桌子" style="text;strokeColor=none;align=center;fillColor=none;html=1;verticalAlign=middle;whiteSpace=wrap;rounded=0;fontSize=500;movable=0;resizable=0;rotatable=0;deletable=0;editable=0;locked=1;connectable=0;" parent="1" vertex="1">
          <mxGeometry x="18070.8625" y="11494.6825" width="395.6685" height="118.11" as="geometry" />
        </mxCell>
        <mxCell id="2Vlns5ZEm93gp3pkl4o4-178" value="120*60&lt;div&gt;桌子&lt;/div&gt;" style="text;strokeColor=none;align=center;fillColor=none;html=1;verticalAlign=middle;whiteSpace=wrap;rounded=0;fontSize=500;movable=0;resizable=0;rotatable=0;deletable=0;editable=0;locked=1;connectable=0;" parent="1" vertex="1">
          <mxGeometry x="22647.6225" y="1102.3525" width="1889.76" height="2342.51" as="geometry" />
        </mxCell>
        <mxCell id="2Vlns5ZEm93gp3pkl4o4-179" value="" style="rounded=0;whiteSpace=wrap;html=1;direction=east;movable=0;resizable=0;rotatable=0;deletable=0;editable=0;locked=1;connectable=0;" parent="1" vertex="1">
          <mxGeometry x="16742.12" y="9.839999999999947" width="2755.9" height="137.795" as="geometry" />
        </mxCell>
        <mxCell id="2Vlns5ZEm93gp3pkl4o4-180" value="70&lt;span style=&quot;background-color: transparent; color: light-dark(rgb(0, 0, 0), rgb(255, 255, 255));&quot;&gt;*35&lt;/span&gt;&lt;span style=&quot;background-color: transparent; color: light-dark(rgb(0, 0, 0), rgb(255, 255, 255));&quot;&gt;画板&lt;/span&gt;" style="text;strokeColor=none;align=center;fillColor=none;html=1;verticalAlign=middle;whiteSpace=wrap;rounded=0;fontSize=500;movable=0;resizable=0;rotatable=0;deletable=0;editable=0;locked=1;connectable=0;" parent="1" vertex="1">
          <mxGeometry x="15950" y="-649.6100000000001" width="3935.0315" height="590.55" as="geometry" />
        </mxCell>
        <mxCell id="2Vlns5ZEm93gp3pkl4o4-181" value="" style="rounded=0;whiteSpace=wrap;html=1;direction=south;movable=0;resizable=0;rotatable=0;deletable=0;editable=0;locked=1;connectable=0;" parent="1" vertex="1">
          <mxGeometry x="23602.34" y="4734.239999999999" width="1181.1" height="4724.4" as="geometry" />
        </mxCell>
        <mxCell id="2Vlns5ZEm93gp3pkl4o4-182" value="120&lt;div&gt;*30&lt;div&gt;书柜&amp;nbsp;&lt;/div&gt;&lt;/div&gt;" style="text;strokeColor=none;align=center;fillColor=none;html=1;verticalAlign=middle;whiteSpace=wrap;rounded=0;fontSize=500;movable=0;resizable=0;rotatable=0;deletable=0;editable=0;locked=1;connectable=0;" parent="1" vertex="1">
          <mxGeometry x="23728.670000000002" y="5462.585" width="1181.1" height="3149.6" as="geometry" />
        </mxCell>
        <mxCell id="2Vlns5ZEm93gp3pkl4o4-183" value="" style="rounded=0;whiteSpace=wrap;html=1;direction=south;movable=0;resizable=0;rotatable=0;deletable=0;editable=0;locked=1;connectable=0;" parent="1" vertex="1">
          <mxGeometry x="24365.91" y="10196.83" width="393.7" height="2362.2" as="geometry" />
        </mxCell>
        <mxCell id="2Vlns5ZEm93gp3pkl4o4-184" value="60*30&lt;div&gt;墙上书架&lt;/div&gt;" style="text;strokeColor=none;align=center;fillColor=none;html=1;verticalAlign=middle;whiteSpace=wrap;rounded=0;fontSize=500;movable=0;resizable=0;rotatable=0;deletable=0;editable=0;locked=1;connectable=0;" parent="1" vertex="1">
          <mxGeometry x="25049.190000000002" y="10246.042500000001" width="1181.1" height="2362.2" as="geometry" />
        </mxCell>
        <mxCell id="MsbWvqU1ZZIRmgot75XU-1" value="70&lt;span style=&quot;background-color: transparent; color: light-dark(rgb(0, 0, 0), rgb(255, 255, 255));&quot;&gt;*35&lt;/span&gt;&lt;span style=&quot;background-color: transparent; color: light-dark(rgb(0, 0, 0), rgb(255, 255, 255));&quot;&gt;画板&lt;/span&gt;" style="text;strokeColor=none;align=center;fillColor=none;html=1;verticalAlign=middle;whiteSpace=wrap;rounded=0;fontSize=500;movable=0;resizable=0;rotatable=0;deletable=0;editable=0;locked=1;connectable=0;" vertex="1" parent="1">
          <mxGeometry x="2401.5699999999997" y="-688.9800000000005" width="3937" height="590.55" as="geometry" />
        </mxCell>
        <mxCell id="MsbWvqU1ZZIRmgot75XU-2" value="&lt;div&gt;次卧&lt;span style=&quot;background-color: transparent; color: light-dark(rgb(0, 0, 0), rgb(255, 255, 255));&quot;&gt;沙发床收起&lt;/span&gt;&lt;span style=&quot;background-color: transparent; color: light-dark(rgb(0, 0, 0), rgb(255, 255, 255));&quot;&gt;效果&lt;/span&gt;&lt;/div&gt;" style="text;strokeColor=none;align=center;fillColor=none;html=1;verticalAlign=middle;whiteSpace=wrap;rounded=0;fontSize=600;movable=0;resizable=0;rotatable=0;deletable=0;editable=0;locked=1;connectable=0;" vertex="1" parent="1">
          <mxGeometry x="16806" y="14450" width="7088.568499999999" height="787.4" as="geometry" />
        </mxCell>
      </root>
    </mxGraphModel>
  </diagram>
  <diagram name="儿童房" id="vvN2WXxCwXEzClArBHi1">
    <mxGraphModel dx="28560" dy="15870" grid="1" gridSize="3937" guides="1" tooltips="1" connect="1" arrows="1" fold="1" page="1" pageScale="1" pageWidth="1100" pageHeight="850" background="none" math="0" shadow="0">
      <root>
        <mxCell id="NKYnW35FqUTvferoAnF6-0" />
        <mxCell id="NKYnW35FqUTvferoAnF6-1" parent="NKYnW35FqUTvferoAnF6-0" />
        <mxCell id="xW0ElXynrydnPSAQ1527-0" value="" style="rounded=0;whiteSpace=wrap;html=1;snapToPoint=0;movableLabel=0;movable=0;backgroundOutline=0;metaEdit=0;expand=1;collapsible=0;dropTarget=0;container=0;portConstraintRotation=0;noLabel=0;overflow=block;fillOpacity=100;imageVerticalAlign=top;resizable=0;rotatable=0;deletable=0;editable=0;locked=1;connectable=0;" parent="NKYnW35FqUTvferoAnF6-1" vertex="1">
          <mxGeometry width="11023.6" height="11535.41" as="geometry" />
        </mxCell>
        <mxCell id="tAqlmTnX8onAQzW5TAbV-0" value="&lt;font style=&quot;font-size: 500px;&quot;&gt;飘窗&lt;/font&gt;&lt;div&gt;&lt;br&gt;&lt;/div&gt;" style="rounded=0;whiteSpace=wrap;html=1;movable=0;resizable=0;rotatable=0;deletable=0;editable=0;locked=1;connectable=0;direction=south;" parent="NKYnW35FqUTvferoAnF6-1" vertex="1">
          <mxGeometry x="11023.59825" y="-0.0032499999997526174" width="787.4" height="5905.5" as="geometry" />
        </mxCell>
        <mxCell id="8LNIsz9tCERqGJbVdwSq-6" value="" style="rounded=0;whiteSpace=wrap;html=1;movable=0;resizable=0;rotatable=0;deletable=0;editable=0;locked=1;connectable=0;" parent="NKYnW35FqUTvferoAnF6-1" vertex="1">
          <mxGeometry y="-787.4" width="3931.0944999999997" height="787.4" as="geometry" />
        </mxCell>
        <mxCell id="8LNIsz9tCERqGJbVdwSq-8" value="" style="verticalLabelPosition=bottom;html=1;verticalAlign=top;align=center;shape=mxgraph.floorplan.doorLeft;direction=east;movable=0;resizable=0;rotatable=0;deletable=0;editable=0;locked=1;connectable=0;" parent="NKYnW35FqUTvferoAnF6-1" vertex="1">
          <mxGeometry x="393.7" width="3149.6" height="3149.6" as="geometry" />
        </mxCell>
        <mxCell id="cOUJSQrxsFRwvfam29Ah-0" value="" style="rounded=0;whiteSpace=wrap;html=1;movable=0;resizable=0;rotatable=0;deletable=0;editable=0;locked=1;connectable=0;" parent="NKYnW35FqUTvferoAnF6-1" vertex="1">
          <mxGeometry x="7874" y="3937" width="120" height="60" as="geometry" />
        </mxCell>
        <mxCell id="cOUJSQrxsFRwvfam29Ah-1" value="150*220床" style="rounded=0;whiteSpace=wrap;html=1;fontSize=500;movable=1;resizable=1;rotatable=1;deletable=1;editable=1;locked=0;connectable=1;" parent="NKYnW35FqUTvferoAnF6-1" vertex="1">
          <mxGeometry x="2362.2" y="5629.91" width="8661.4" height="5905.5" as="geometry" />
        </mxCell>
        <mxCell id="cOUJSQrxsFRwvfam29Ah-2" value="170*60衣柜" style="rounded=0;whiteSpace=wrap;html=1;fontSize=500;movable=0;resizable=0;rotatable=0;deletable=0;editable=0;locked=1;connectable=0;" parent="NKYnW35FqUTvferoAnF6-1" vertex="1">
          <mxGeometry y="4842.51" width="2362.2" height="6692.9" as="geometry" />
        </mxCell>
        <mxCell id="tt0jAQ7PUa4iOCh38wl9-0" value="60*120桌子" style="verticalLabelPosition=middle;html=1;verticalAlign=middle;align=center;shape=mxgraph.floorplan.table;direction=west;movable=0;resizable=0;rotatable=0;deletable=0;editable=0;locked=1;connectable=0;fontSize=500;labelPosition=center;" parent="NKYnW35FqUTvferoAnF6-1" vertex="1">
          <mxGeometry x="4950.0025000000005" y="0.002499999999827196" width="4724.4" height="2362.2" as="geometry" />
        </mxCell>
        <mxCell id="Fua3-EOHzGS5lGbB6-Ot-0" value="&lt;div&gt;&lt;span style=&quot;background-color: transparent; color: light-dark(rgb(0, 0, 0), rgb(255, 255, 255));&quot;&gt;儿童房&lt;/span&gt;&lt;/div&gt;" style="text;strokeColor=none;align=center;fillColor=none;html=1;verticalAlign=middle;whiteSpace=wrap;rounded=0;fontSize=600;movable=0;resizable=0;rotatable=0;deletable=0;editable=0;locked=1;connectable=0;" vertex="1" parent="NKYnW35FqUTvferoAnF6-1">
          <mxGeometry x="2362.2" y="11963" width="7088.568499999999" height="787.4" as="geometry" />
        </mxCell>
      </root>
    </mxGraphModel>
  </diagram>
</mxfile>
